<svg xmlns="http://www.w3.org/2000/svg" viewBox="0 0 460 112" role="img" aria-labelledby="title desc">
  <title id="title">caudra</title>
  <desc id="desc">Caudra lowercase wordmark with the decision aperture mark</desc>
  <g transform="translate(4 4) scale(1.08)">
    <g transform="rotate(180 48 48)">
      <path d="M7 12h24c14 0 19 9 28 19 4 5 8 7 12 9l-6 9c-5-4-9-5-14-8-11-7-13-17-22-17H7Z" fill="#09254d"/>
      <path d="M7 84h24c14 0 19-9 28-19 4-5 8-7 12-9l-6-9c-5 4-9 5-14 8-11 7-13 17-22 17H7Z" fill="#09254d"/>
    </g>
    <path d="M7 40h11c5 0 8 3 8 8s-3 8-8 8H7Z" fill="#f0442f"/>
    <path d="M34 39h55v18H34c-5 0-8-4-8-9s3-9 8-9Z" fill="#f0442f"/>
    <circle cx="27" cy="48" r="6" fill="#f2ebdd"/>
  </g>
  <text x="124" y="78" fill="#09254d" font-family="Inter, sans-serif" font-size="66" font-weight="600">caudra</text>
</svg>
